<?xml version="1.0" encoding="utf-8"?>
<!-- Generator: Adobe Illustrator 26.0.0, SVG Export Plug-In . SVG Version: 6.00 Build 0)  -->
<svg version="1.1" id="图层_1" xmlns="http://www.w3.org/2000/svg" xmlns:xlink="http://www.w3.org/1999/xlink" x="0px" y="0px"
	 viewBox="0 0 200 200" style="enable-background:new 0 0 200 200;" xml:space="preserve">
<style type="text/css">
	.st0{fill:#F64650;}
	.st1{fill:#168CFE;}
</style>
<desc>Created with Sketch.</desc>
<g>
	<path class="st0" d="M100.2,0.4c-0.1,0.5,0.4,0.6,0.7,0.7c13,7.5,26,14.9,39,22.4c12.9,7.5,25.9,14.9,38.8,22.4
		c2.9,1.7,5.8,3.3,8.7,5c0.6,0.3,0.8,0.6,0.8,1.3c0,33.3,0,66.5,0,99.8c0,0.7-0.2,1-0.8,1.3c-14.5,8-28.9,16-43.4,24
		c-12.4,6.9-24.8,13.8-37.2,20.6c-1,0.5-2,0.8-3,1.7c0-0.9,0-1.5,0-2.1c0-45.4,0-90.8,0.1-136.2c0-0.5-0.3-1.2,0.2-1.4
		c0.4-0.2,0.8,0.5,1.1,0.8c8.9,8.2,17.8,16.5,26.7,24.7c0.7,0.6,0.9,1.2,0.9,2.1c0,22.5,0,45,0,67.5c0,0.4,0,0.7,0,1.1
		c0,1,0.3,1.1,1.1,0.6c1.6-0.9,3.3-1.9,4.9-2.7c0.8-0.4,1-1,1-1.8c0-19.5,0-39.1,0-58.6c0-0.4,0-0.9,0-1.3c0.5,0,0.7,0.3,1,0.5
		c5.4,4.7,10.7,9.5,16,14.2c0.7,0.6,0.9,1.2,0.9,2.1c0,11,0,22,0,33c0,1.6,0,1.6,1.5,0.8c1.5-0.8,3.1-1.7,4.6-2.5
		c0.9-0.4,1.2-1,1.2-2c0-12.9,0-25.8,0-38.7c0-11.3,0-22.6,0-33.9c0-1-0.3-1.5-1.1-2c-13.2-7.6-26.4-15.2-39.7-22.9
		c-7.7-4.5-15.5-8.9-23.2-13.3c-0.4-0.2-0.7-0.5-1.1-0.7c0-8.2,0-16.4,0-24.6c0-0.5-0.1-1-0.1-1.5c0-0.1-0.1-0.2-0.1-0.3
		C99.9,0.4,100.1,0.4,100.2,0.4z"/>
	<path class="st1" d="M99.9,0.7c0,0.5,0.1,1,0.1,1.5c0,8.2,0,16.4,0,24.6c-1.2,1.1-2.7,1.7-4.1,2.6c-3.6,2.1-7.3,4.2-10.9,6.3
		c-7.3,4.2-14.6,8.4-21.8,12.6c-8.6,5-17.2,10-25.9,14.8c-1.9,1.1-2.4,2.2-2.4,4.2c0.1,23.7,0.1,47.4,0,71.2c0,1,0.3,1.6,1.2,2
		c1.6,0.8,3.2,1.8,4.8,2.6c1.2,0.7,1.3,0.6,1.3-0.8c0-4.2,0-8.3,0-12.5c0-6.9,0-13.8,0-20.7c0-0.8,0.2-1.4,0.9-2
		c5.6-4.9,11.2-9.9,16.7-14.9c0.4,0.2,0.2,0.6,0.2,0.9c0,19.7,0,39.5,0,59.2c0,0.9,0.3,1.3,1,1.7c1.7,0.9,3.3,1.8,4.9,2.7
		c1.1,0.6,1.2,0.5,1.2-0.7c0-6,0-11.9,0-17.9c0-16.9,0-33.7,0-50.6c0-0.9,0.3-1.5,0.9-2.1c8.3-7.7,16.7-15.4,25-23.1
		c1-0.9,1.9-1.7,3.1-2.8c0,46.7,0,93.2,0,139.8c-1.3-0.4-2.4-1.2-3.6-1.8c-20.1-11.1-40.1-22.3-60.2-33.4c-6.5-3.6-13-7.2-19.5-10.8
		c-0.6-0.4-0.9-0.7-0.9-1.5c0-33.2,0-66.4,0-99.6c0-0.8,0.3-1.1,1-1.5c11.5-6.6,23.1-13.3,34.6-19.9c13.5-7.8,27-15.6,40.6-23.4
		c3.5-2,7-4,10.5-6C98.9,1.4,99.5,1.2,99.9,0.7z"/>
</g>
</svg>
